<mxfile host="app.diagrams.net" modified="2023-12-22T12:02:41.806Z" agent="Mozilla/5.0 (Macintosh; Intel Mac OS X 10_15_7) AppleWebKit/537.36 (KHTML, like Gecko) Chrome/120.0.0.0 Safari/537.36" etag="SibLPmsSaKv-nuAOpJCa" version="22.1.11" type="github">
  <diagram id="f106602c-feb2-e66a-4537-3a34d633f6aa" name="Template">
    <mxGraphModel dx="2385" dy="1550" grid="1" gridSize="10" guides="1" tooltips="1" connect="0" arrows="0" fold="1" page="1" pageScale="1" pageWidth="1169" pageHeight="827" background="none" math="0" shadow="0">
      <root>
        <mxCell id="0" />
        <mxCell id="1" parent="0" />
      </root>
    </mxGraphModel>
  </diagram>
</mxfile>
